<svg xmlns="http://www.w3.org/2000/svg" width="20.333" height="17.792" viewBox="0 0 20.333 17.792">
  <path id="arrow-right-to-bracket-regular" d="M20.333,35.813V45.979a3.812,3.812,0,0,1-3.813,3.813H13.662a.953.953,0,1,1,0-1.906h2.859a1.912,1.912,0,0,0,1.906-1.906V35.813a1.912,1.912,0,0,0-1.906-1.906H13.662a.953.953,0,0,1,0-1.906h2.859A3.813,3.813,0,0,1,20.333,35.813Zm-6.612,4.432-5.083-5.4a.952.952,0,1,0-1.39,1.3l3.57,3.8H.953a.953.953,0,0,0,0,1.906h9.865l-3.571,3.8a.952.952,0,0,0,.041,1.347.964.964,0,0,0,.655.259.949.949,0,0,0,.694-.3l5.083-5.4A.949.949,0,0,0,13.721,40.245Z" transform="translate(0 -32)" fill="#fff"/>
</svg>
