<svg xmlns="http://www.w3.org/2000/svg" width="20.854" height="17.7" viewBox="0 0 20.854 17.7">
  <path id="arrow-right-from-bracket-regular" d="M7.823,48.752a.961.961,0,0,1-.978.948H3.912A3.854,3.854,0,0,1,0,45.907V35.793A3.854,3.854,0,0,1,3.912,32H6.845a.949.949,0,1,1,0,1.9H3.912a1.932,1.932,0,0,0-1.956,1.9V45.907a1.932,1.932,0,0,0,1.956,1.9H6.845A.961.961,0,0,1,7.823,48.752ZM20.6,40.2l-5.179-5.373a1,1,0,0,0-1.382-.041.927.927,0,0,0-.042,1.34L17.618,39.9H7.461a.948.948,0,0,0,0,1.9H17.582l-3.664,3.775a.927.927,0,0,0,.042,1.34,1.163,1.163,0,0,0,.672.258.988.988,0,0,0,.712-.3L20.522,41.5A.866.866,0,0,0,20.6,40.2Z" transform="translate(0 -32)" fill="#fff"/>
</svg>
