<svg xmlns="http://www.w3.org/2000/svg" width="20.554" height="23.49" viewBox="0 0 20.554 23.49">
  <path id="trash-can-solid" d="M6.2.812A1.467,1.467,0,0,1,7.515,0h5.524a1.467,1.467,0,0,1,1.312.812l.33.657h4.4a1.468,1.468,0,1,1,0,2.936H1.468a1.468,1.468,0,0,1,0-2.936h4.4ZM1.427,5.873H19.086V20.554a2.939,2.939,0,0,1-2.936,2.936H4.363a2.964,2.964,0,0,1-2.936-2.936ZM5.1,9.543V19.82a.764.764,0,0,0,.734.734.711.711,0,0,0,.734-.734V9.543a.711.711,0,0,0-.734-.734A.764.764,0,0,0,5.1,9.543Zm4.4,0V19.82a.764.764,0,0,0,.734.734.746.746,0,0,0,.775-.734V9.543a.746.746,0,0,0-.775-.734A.764.764,0,0,0,9.5,9.543Zm4.446,0V19.82a.734.734,0,0,0,1.468,0V9.543a.734.734,0,0,0-1.468,0Z" fill="red"/>
</svg>
