<svg xmlns="http://www.w3.org/2000/svg" width="19.443" height="22.221" viewBox="0 0 19.443 22.221">
  <path id="user-hair-long-solid" d="M4.166,5.555a5.555,5.555,0,0,1,11.11,0v.438A5.582,5.582,0,0,0,16.9,9.96l.169.169a.982.982,0,0,1-.694,1.675H3.065a.957.957,0,0,1-.694-1.675l.168-.169A5.546,5.546,0,0,0,4.127,5.994ZM12.9,4.166h-.056A2.77,2.77,0,0,1,10.659,3.1,3.469,3.469,0,0,1,7.638,4.861H6.319a3.658,3.658,0,0,0-.069.694V6.25a3.472,3.472,0,0,0,6.944,0V5.555A3.445,3.445,0,0,0,12.9,4.166Zm-.46,9.722a7,7,0,0,1,7,7,1.335,1.335,0,0,1-1.332,1.332H1.333A1.334,1.334,0,0,1,0,20.888a7,7,0,0,1,7-7Z" fill="#2d4d73"/>
</svg>
